<svg width="25" height="32" viewBox="0 0 25 32" fill="none" xmlns="http://www.w3.org/2000/svg">
<g clip-path="url(#clip0_4_750)">
<path fill-rule="evenodd" clip-rule="evenodd" d="M21.2653 13.7284L13.7653 6.65219C13.7616 6.64899 13.7582 6.64554 13.755 6.64188C13.1828 6.1215 12.3088 6.1215 11.7366 6.64188L11.7262 6.65219L4.23469 13.7284C3.92573 14.0125 3.74994 14.4131 3.75 14.8328V23.5C3.75 24.3284 4.42157 25 5.25 25H9.75C10.5784 25 11.25 24.3284 11.25 23.5V19H14.25V23.5C14.25 24.3284 14.9216 25 15.75 25H20.25C21.0784 25 21.75 24.3284 21.75 23.5V14.8328C21.7501 14.4131 21.5743 14.0125 21.2653 13.7284V13.7284ZM20.25 23.5H15.75V19C15.75 18.1716 15.0784 17.5 14.25 17.5H11.25C10.4216 17.5 9.75 18.1716 9.75 19V23.5H5.25V14.8328L5.26031 14.8234L12.75 7.75L20.2406 14.8216L20.2509 14.8309L20.25 23.5Z" fill="#8FADCC"/>
</g>
<defs>
<clipPath id="clip0_4_750">
<rect width="24" height="24" fill="white" transform="translate(0.75 4)"/>
</clipPath>
</defs>
</svg>
