<svg width="25" height="32" viewBox="0 0 25 32" fill="none" xmlns="http://www.w3.org/2000/svg">
<g clip-path="url(#clip0_4_757)">
<path fill-rule="evenodd" clip-rule="evenodd" d="M14.5 14.5C14.5 14.9142 14.1642 15.25 13.75 15.25H10.75C10.3358 15.25 10 14.9142 10 14.5C10 14.0858 10.3358 13.75 10.75 13.75H13.75C14.1642 13.75 14.5 14.0858 14.5 14.5V14.5ZM22 10.75V22.75C22 23.5784 21.3284 24.25 20.5 24.25H4C3.17157 24.25 2.5 23.5784 2.5 22.75V10.75C2.5 9.92157 3.17157 9.25 4 9.25H7.75V8.5C7.75 7.25736 8.75736 6.25 10 6.25H14.5C15.7426 6.25 16.75 7.25736 16.75 8.5V9.25H20.5C21.3284 9.25 22 9.92157 22 10.75V10.75ZM9.25 9.25H15.25V8.5C15.25 8.08579 14.9142 7.75 14.5 7.75H10C9.58579 7.75 9.25 8.08579 9.25 8.5V9.25ZM20.5 14.6509V10.75H4V14.6509C6.53146 16.0289 9.36783 16.7505 12.25 16.75C15.1322 16.7505 17.9685 16.0289 20.5 14.6509V14.6509Z" fill="white"/>
</g>
<defs>
<clipPath id="clip0_4_757">
<rect width="24" height="24" fill="white" transform="translate(0.25 4)"/>
</clipPath>
</defs>
</svg>
